HIERARCHY
ROOT joint_Root
{
	OFFSET 0.0 0.0 0.0
	CHANNELS 6 Xposition Yposition Zposition Zrotation Xrotation Yrotation 
	JOINT Hips
	{
		OFFSET 4.5925 91.4895 -427.239
		CHANNELS 6 Xposition Yposition Zposition Zrotation Xrotation Yrotation 
		JOINT Spine
		{
			OFFSET 15.7357 0.0 0.0
			CHANNELS 6 Xposition Yposition Zposition Zrotation Xrotation Yrotation 
			JOINT Chest
			{
				OFFSET 8.98455 -0.406207 0.0
				CHANNELS 6 Xposition Yposition Zposition Zrotation Xrotation Yrotation 
				JOINT Neck
				{
					OFFSET 16.3773 0.0 0.0
					CHANNELS 6 Xposition Yposition Zposition Zrotation Xrotation Yrotation 
					JOINT Head
					{
						OFFSET 6.45672 0.0 0.0
						CHANNELS 6 Xposition Yposition Zposition Zrotation Xrotation Yrotation 
						End Site
						{
							OFFSET 0.0 0.0 0.0
						}
					}
				}
				JOINT Shoulder_L
				{
					OFFSET 12.9942 -0.242716 4.98039
					CHANNELS 6 Xposition Yposition Zposition Zrotation Xrotation Yrotation 
					JOINT UpperArm_L
					{
						OFFSET 5.34809 0.0 0.0
						CHANNELS 6 Xposition Yposition Zposition Zrotation Xrotation Yrotation 
						JOINT LowerArm_L
						{
							OFFSET 24.3286 1.87007e-05 0.0
							CHANNELS 6 Xposition Yposition Zposition Zrotation Xrotation Yrotation 
							JOINT Hand_L
							{
								OFFSET 22.2916 0.0 0.0
								CHANNELS 6 Xposition Yposition Zposition Zrotation Xrotation Yrotation 
								End Site
								{
									OFFSET 0.0 0.0 0.0
								}
							}
						}
					}
				}
				JOINT Shoulder_R
				{
					OFFSET 12.9945 -0.242716 -4.98039
					CHANNELS 6 Xposition Yposition Zposition Zrotation Xrotation Yrotation 
					JOINT UpperArm_R
					{
						OFFSET -5.34813 0.0 0.0
						CHANNELS 6 Xposition Yposition Zposition Zrotation Xrotation Yrotation 
						JOINT LowerArm_R
						{
							OFFSET -24.3289 0.000322201 0.0
							CHANNELS 6 Xposition Yposition Zposition Zrotation Xrotation Yrotation 
							JOINT Hand_R
							{
								OFFSET -22.2915 -0.000108084 0.0
								CHANNELS 6 Xposition Yposition Zposition Zrotation Xrotation Yrotation 
								End Site
								{
									OFFSET 0.0 0.0 0.0
								}
							}
						}
					}
				}
			}
		}
		JOINT UpperLeg_L
		{
			OFFSET -2.19248 -6.46944 0.0
			CHANNELS 6 Xposition Yposition Zposition Zrotation Xrotation Yrotation 
			JOINT LowerLeg_L
			{
				OFFSET 39.0811 0.0 -1.23785e-05
				CHANNELS 6 Xposition Yposition Zposition Zrotation Xrotation Yrotation 
				JOINT Foot_L
				{
					OFFSET 40.9854 0.0 -1.26872e-05
					CHANNELS 6 Xposition Yposition Zposition Zrotation Xrotation Yrotation 
					JOINT Toes_L
					{
						OFFSET 11.7543 0.0 0.0
						CHANNELS 6 Xposition Yposition Zposition Zrotation Xrotation Yrotation 
						End Site
						{
							OFFSET 0.0 0.0 0.0
						}
					}
				}
			}
		}
		JOINT UpperLeg_R
		{
			OFFSET -2.19251 6.46944 0.0
			CHANNELS 6 Xposition Yposition Zposition Zrotation Xrotation Yrotation 
			JOINT LowerLeg_R
			{
				OFFSET -39.0811 -0.00228153 -0.0401928
				CHANNELS 6 Xposition Yposition Zposition Zrotation Xrotation Yrotation 
				JOINT Foot_R
				{
					OFFSET -40.9854 0.0 0.0
					CHANNELS 6 Xposition Yposition Zposition Zrotation Xrotation Yrotation 
					JOINT Toes_R
					{
						OFFSET -11.7543 0.0 0.0
						CHANNELS 6 Xposition Yposition Zposition Zrotation Xrotation Yrotation 
						End Site
						{
							OFFSET 0.0 0.0 0.0
						}
					}
				}
			}
		}
	}
}
MOTION
Frames:	6
Frame Time:	0.0333333
0.000000 0.000000 0.000000 0.000000 0.000000 -0.000000 -0.895771 82.283300 -0.536342 89.293900 -2.895240 12.292300 15.735700 0.000005 -0.000001 88.347200 80.900100 -88.677200 8.984550 -0.406207 -0.000000 10.425100 -0.529029 -0.611423 16.377300 -0.000001 -0.000001 -3.250990 -3.125200 1.436730 6.456720 -0.000001 -0.000000 -5.702380 -2.349800 2.964280 12.994200 -0.242716 4.980390 -91.373600 4.128170 -71.577700 5.348090 -0.000007 -0.000001 -58.207400 20.994800 -19.768800 24.328600 0.000019 0.000005 11.165500 24.303700 -25.618100 22.291600 -0.000001 0.000005 1.374200 5.359170 -1.656080 12.994500 -0.242716 -4.980390 88.280500 8.519030 -78.543600 -5.348130 -0.000001 -0.000004 -57.604100 22.831900 -12.540900 -24.328900 0.000322 -0.000009 -0.577391 -1.936080 -16.463300 -22.291500 -0.000108 -0.000004 4.110470 5.428750 -3.870160 -2.192480 -6.469440 -0.000000 -174.159000 -9.380800 -13.229900 39.081100 -0.000007 -0.000012 -0.597581 0.320950 61.761900 40.985400 -0.000006 -0.000013 -0.773716 1.852640 -85.969400 11.754300 -0.000000 0.000003 -0.000428 -0.003501 -16.706300 -2.192510 6.469440 -0.000001 176.588000 12.509800 167.819000 -39.081100 -0.002282 -0.040193 0.091456 -0.047068 61.931400 -40.985400 0.000008 0.000006 6.776920 2.654000 -86.578200 -11.754300 -0.000006 -0.000006 -1.133500 -1.409700 -16.937300
0.000000 0.000000 0.000000 0.000000 0.000000 -0.000000 -0.996317 84.535500 0.423227 89.318100 -2.210720 12.279700 15.735700 0.000005 -0.000001 88.145200 81.844200 -88.554400 8.984550 -0.406207 -0.000000 8.535490 -0.528165 -0.778270 16.377300 -0.000001 -0.000001 -1.367000 -3.166030 1.504280 6.456720 -0.000001 -0.000000 -4.354880 -2.469000 2.985960 12.994200 -0.242716 4.980390 -90.927400 2.678420 -70.892400 5.348090 -0.000007 -0.000001 -50.276400 10.352000 -22.151400 24.328600 0.000019 0.000005 9.677830 24.611000 -22.269900 22.291600 -0.000001 0.000005 0.072541 5.313070 -0.312325 12.994500 -0.242716 -4.980390 88.492400 6.746080 -77.368600 -5.348130 -0.000001 -0.000004 -50.751100 11.239500 -14.131200 -24.328900 0.000322 -0.000009 0.303019 1.959200 -8.911590 -22.291500 -0.000108 -0.000004 -0.724650 5.367970 -1.911090 -2.192480 -6.469440 -0.000000 -174.162000 -8.998630 -9.213410 39.081100 -0.000007 -0.000012 -0.508484 0.357537 54.888500 40.985400 -0.000006 -0.000013 -0.802562 2.219200 -83.160000 11.754300 -0.000000 0.000003 -0.000364 -0.003058 -16.690700 -2.192510 6.469440 -0.000001 176.179000 13.355400 171.968000 -39.081100 -0.002282 -0.040193 0.076400 -0.050940 55.156700 -40.985400 0.000008 0.000006 6.635950 3.428360 -83.647200 -11.754300 -0.000006 -0.000006 -1.127920 -1.393920 -17.236100
0.000000 0.000000 0.000000 0.000000 0.000000 -0.000000 -1.100710 86.916900 1.219260 89.633600 -1.956680 11.082900 15.735700 0.000005 -0.000001 87.463900 83.426800 -88.116700 8.984550 -0.406207 -0.000000 5.364810 -0.566735 -1.277540 16.377300 -0.000001 -0.000001 1.425990 -2.959280 1.471390 6.456720 -0.000001 -0.000000 -2.990120 -2.347930 3.287770 12.994200 -0.242716 4.980390 -90.141900 0.399323 -70.417000 5.348090 -0.000007 -0.000001 -42.541100 -5.275230 -25.553700 24.328600 0.000019 0.000005 8.731790 26.327200 -19.101800 22.291600 -0.000001 0.000005 2.171530 5.267240 0.966764 12.994500 -0.242716 -4.980390 88.843700 4.723150 -76.223500 -5.348130 -0.000001 -0.000004 -42.036500 -4.532220 -18.039500 -24.328900 0.000322 -0.000009 0.218663 5.133360 -2.477400 -22.291500 -0.000108 -0.000004 0.016345 5.268890 0.904069 -2.192480 -6.469440 -0.000000 -174.351000 -9.880530 -5.765650 39.081100 -0.000007 -0.000012 -0.391367 0.370020 46.606800 40.985400 -0.000006 -0.000013 -0.622561 3.218630 -79.483400 11.754300 -0.000000 0.000003 -0.000251 -0.002243 -16.661600 -2.192510 6.469440 -0.000001 175.859000 14.007900 175.161000 -39.081100 -0.002282 -0.040193 0.058254 -0.050684 47.337000 -40.985400 0.000008 0.000006 6.524430 4.446970 -79.915100 -11.754300 -0.000006 -0.000006 -1.052690 -1.288330 -17.665100
0.000000 0.000000 0.000000 0.000000 0.000000 -0.000000 -1.072130 88.746000 1.651100 89.791500 -2.037820 8.592290 15.735700 0.000005 -0.000001 84.818100 85.455700 -85.536700 8.984550 -0.406207 -0.000000 1.281020 -0.779822 -1.427170 16.377300 -0.000001 -0.000001 3.973180 -2.572250 1.276320 6.456720 -0.000001 -0.000000 -1.801860 -1.798310 3.255100 12.994200 -0.242716 4.980390 -89.336500 -1.871200 -70.469300 5.348090 -0.000007 -0.000001 -34.842600 -22.581300 -29.603200 24.328600 0.000019 0.000005 7.416750 23.150300 -18.323400 22.291600 -0.000001 0.000005 4.972550 5.193080 2.883710 12.994500 -0.242716 -4.980390 89.365500 2.491810 -75.709200 -5.348130 -0.000001 -0.000004 -32.890900 -21.175000 -23.968400 -24.328900 0.000322 -0.000009 0.209541 5.981770 -2.029990 -22.291500 -0.000108 -0.000004 3.624860 5.138960 4.182230 -2.192480 -6.469440 -0.000000 -174.667000 -11.349300 -4.342400 39.081100 -0.000007 -0.000012 -0.290094 0.354115 39.325200 40.985400 -0.000006 -0.000013 -0.392892 4.368750 -76.070300 11.754300 -0.000000 0.000003 -0.000156 -0.001505 -16.634700 -2.192510 6.469440 -0.000001 175.974000 14.833100 176.275000 -39.081100 -0.002282 -0.040193 0.042370 -0.045872 40.438200 -40.985400 0.000008 0.000006 6.379010 5.830540 -76.543500 -11.754300 -0.000006 -0.000006 -0.813683 -0.989464 -18.038100
0.000000 0.000000 0.000000 0.000000 0.000000 -0.000000 -1.020080 89.857000 1.933870 89.733100 -2.362650 6.576040 15.735700 0.000005 -0.000001 78.829900 86.921800 -79.462800 8.984550 -0.406207 -0.000000 -1.732280 -1.139930 -1.282620 16.377300 -0.000001 -0.000001 4.722750 -1.987730 1.175460 6.456720 -0.000001 -0.000000 -1.159280 -1.275080 2.985990 12.994200 -0.242716 4.980390 -88.244800 -5.155940 -71.169100 5.348090 -0.000007 -0.000001 -24.352900 -34.843700 -30.181900 24.328600 0.000019 0.000005 7.786840 17.974200 -23.907600 22.291600 -0.000001 0.000005 9.871800 5.289150 0.444550 12.994500 -0.242716 -4.980390 90.268900 -1.107790 -76.338100 -5.348130 -0.000001 -0.000004 -25.737000 -34.379600 -29.273600 -24.328900 0.000322 -0.000009 -0.885885 -4.733730 -10.318300 -22.291500 -0.000108 -0.000004 7.723860 5.275870 0.796718 -2.192480 -6.469440 -0.000000 -174.879000 -12.305400 -3.633800 39.081100 -0.000007 -0.000012 -0.240802 0.353595 34.255700 40.985400 -0.000006 -0.000013 -0.389260 4.927210 -73.702300 11.754300 -0.000000 0.000003 -0.000124 -0.001232 -16.624600 -2.192510 6.469440 -0.000001 176.186000 15.830400 177.024000 -39.081100 -0.002282 -0.040193 0.029926 -0.037747 35.208000 -40.985400 0.000008 0.000006 6.302850 7.438550 -74.504100 -11.754300 -0.000006 -0.000006 -0.519199 -0.637926 -17.922900
0.000000 0.000000 0.000000 0.000000 0.000000 -0.000000 -0.911199 90.474200 2.114390 89.695800 -3.035120 5.148790 15.735700 0.000005 -0.000001 74.639500 87.863200 -75.179600 8.984550 -0.406207 -0.000000 -3.650230 -1.077620 -1.114890 16.377300 -0.000001 -0.000001 3.876570 -1.745300 1.339790 6.456720 -0.000001 -0.000000 -1.563560 -1.014550 2.919020 12.994200 -0.242716 4.980390 -86.903600 -8.539690 -69.988700 5.348090 -0.000007 -0.000001 -12.679600 -43.079300 -29.008500 24.328600 0.000019 0.000005 13.317000 18.326700 -36.933000 22.291600 -0.000001 0.000005 17.247800 5.350050 -1.391800 12.994500 -0.242716 -4.980390 91.270900 -5.041120 -75.838100 -5.348130 -0.000001 -0.000004 -15.837000 -41.030200 -30.271300 -24.328900 0.000322 -0.000009 -5.675120 -10.503500 -28.695000 -22.291500 -0.000108 -0.000004 15.447400 5.563970 -8.683450 -2.192480 -6.469440 -0.000000 -175.320000 -12.307200 -3.316130 39.081100 -0.000007 -0.000012 -0.217003 0.360312 31.059400 40.985400 -0.000006 -0.000013 -0.654409 4.186530 -72.279800 11.754300 -0.000000 0.000003 -0.000118 -0.001187 -16.622900 -2.192510 6.469440 -0.000001 176.249000 16.595200 177.420000 -39.081100 -0.002282 -0.040193 0.022661 -0.031284 31.754500 -40.985400 0.000008 0.000006 6.396590 9.046740 -73.417600 -11.754300 -0.000006 -0.000006 -0.164780 -0.218791 -17.763300
